<?xml version="1.0" encoding="utf-8"?>
<!-- Generator: Adobe Illustrator 25.0.0, SVG Export Plug-In . SVG Version: 6.00 Build 0)  -->
<svg version="1.1" id="Layer_1" xmlns="http://www.w3.org/2000/svg" xmlns:xlink="http://www.w3.org/1999/xlink" x="0px" y="0px"
	 viewBox="0 0 100 40" enable-background="new 0 0 100 40" xml:space="preserve">
<path fill="#F0F0F0" d="M16.26,20.61c-0.78,0-1.47-0.12-2.09-0.38s-1.13-0.74-1.55-1.46C12.21,18.06,12,17.04,12,15.73v-5.36H9.34
	v-2.6H12V4l3.03-0.03v3.79h3.85v2.6h-3.85v5.49c0,0.57,0.09,1.03,0.26,1.36c0.17,0.33,0.39,0.56,0.66,0.69
	c0.27,0.13,0.59,0.19,0.94,0.19h1.99v2.51H16.26z M26.21,21c-1.13,0-2.16-0.3-3.09-0.91s-1.65-1.43-2.17-2.47
	c-0.53-1.04-0.79-2.18-0.79-3.43c0-1.24,0.26-2.38,0.79-3.43c0.53-1.04,1.25-1.87,2.18-2.47c0.92-0.61,1.94-0.91,3.07-0.91
	c0.7,0,1.35,0.1,1.95,0.31c0.6,0.21,1.13,0.5,1.59,0.88c0.46,0.38,0.83,0.84,1.1,1.37V7.76h2.88v12.85h-2.88v-2.16
	c-0.27,0.53-0.64,0.99-1.1,1.37c-0.46,0.38-0.99,0.67-1.59,0.88S26.9,21,26.21,21z M26.93,18.2c0.7,0,1.34-0.18,1.91-0.53
	c0.57-0.35,1.03-0.83,1.36-1.45c0.33-0.62,0.5-1.3,0.5-2.04c0-0.73-0.17-1.41-0.5-2.02c-0.33-0.61-0.79-1.1-1.37-1.46
	c-0.58-0.36-1.21-0.54-1.91-0.54c-0.69,0-1.33,0.17-1.9,0.51c-0.58,0.34-1.03,0.81-1.37,1.41c-0.34,0.6-0.51,1.3-0.51,2.09
	c0,0.81,0.17,1.52,0.51,2.12c0.34,0.61,0.8,1.08,1.38,1.4C25.62,18.04,26.25,18.2,26.93,18.2z M35.95,20.61V3h3.03v17.61H35.95z
	 M50.61,12.65c-0.04-0.47-0.22-0.91-0.53-1.32c-0.31-0.4-0.72-0.73-1.23-0.96c-0.51-0.24-1.05-0.36-1.62-0.36
	c-0.67,0-1.28,0.15-1.83,0.46c-0.55,0.3-1,0.76-1.34,1.38c-0.34,0.62-0.51,1.38-0.51,2.29c0,0.85,0.16,1.59,0.48,2.22
	c0.32,0.63,0.76,1.11,1.31,1.44c0.55,0.33,1.16,0.5,1.84,0.5c0.5,0,0.94-0.07,1.32-0.2c0.38-0.13,0.71-0.33,0.97-0.59
	c0.26-0.26,0.46-0.57,0.61-0.94h3.3c-0.22,0.79-0.61,1.52-1.19,2.2c-0.57,0.68-1.29,1.21-2.14,1.62C49.2,20.8,48.26,21,47.23,21
	c-1.26,0-2.4-0.31-3.41-0.92c-1.02-0.61-1.81-1.44-2.39-2.47c-0.57-1.04-0.86-2.18-0.86-3.42c0-1.23,0.29-2.37,0.86-3.42
	c0.58-1.05,1.37-1.87,2.38-2.48c1.01-0.61,2.15-0.91,3.42-0.91c1.25,0,2.37,0.3,3.36,0.89c0.99,0.6,1.76,1.4,2.31,2.41
	s0.83,2.11,0.83,3.28c0,0.15-0.01,0.31-0.03,0.47c-0.02,0.16-0.03,0.35-0.04,0.56H43.05l0.14-2.34H50.61z M55.32,20.61V7.76h2.88v2
	c0.25-0.47,0.59-0.88,1.03-1.24s0.94-0.64,1.52-0.84c0.58-0.2,1.19-0.3,1.84-0.3c1.14,0,2.1,0.24,2.86,0.73
	c0.77,0.49,1.34,1.2,1.72,2.14c0.38,0.94,0.58,2.09,0.58,3.44v6.92h-3.03v-6.86c0-1.23-0.26-2.14-0.78-2.72
	c-0.52-0.58-1.25-0.87-2.2-0.87c-0.6,0-1.16,0.15-1.68,0.46c-0.52,0.31-0.94,0.76-1.25,1.34s-0.47,1.28-0.47,2.08v6.56H55.32z
	 M75.95,20.61c-0.77,0-1.47-0.12-2.09-0.38c-0.62-0.25-1.13-0.74-1.55-1.46c-0.42-0.72-0.62-1.74-0.62-3.06v-5.36h-2.66v-2.6h2.66V4
	l3.03-0.03v3.79h3.85v2.6h-3.85v5.49c0,0.57,0.09,1.03,0.26,1.36c0.17,0.33,0.39,0.56,0.66,0.69c0.27,0.13,0.59,0.19,0.94,0.19h1.99
	v2.51H75.95z M80.48,20.61V3h3.03v17.61H80.48z M87.25,5.76c-0.38,0-0.72-0.08-1-0.23c-0.28-0.15-0.5-0.36-0.65-0.62
	s-0.22-0.56-0.22-0.88c0-0.32,0.07-0.61,0.22-0.87s0.37-0.47,0.65-0.62c0.28-0.15,0.62-0.23,1-0.23c0.39,0,0.73,0.08,1.02,0.23
	c0.29,0.15,0.51,0.36,0.66,0.62c0.15,0.26,0.23,0.55,0.23,0.87c0,0.33-0.08,0.63-0.23,0.89c-0.15,0.26-0.37,0.47-0.66,0.62
	S87.64,5.76,87.25,5.76z M85.75,7.76c0.35,0,0.7,0,1.04,0c0.35,0,0.69,0,1.02,0c0.33,0,0.65,0,0.96,0v12.85h-3.03V7.76z"/>
</svg>
